# xmcd
#
# Track frame offsets: 
#        150
#        13940
#        29425
#        58113
#        72736
#        98828
#        124787
#        142671
#        152983
#        174405
#        187408
#        214465
#
# Disc length: 3140 seconds
#
# Revision: 0
# Processed by: cddbd v1.5.2PL0 Copyright (c) Steve Scherf et al.
# Submitted via: ExactAudioCopy v1.3
#
DISCID=b90c420c
DTITLE=Joe Louis Walker, Bruce Katz and Giles Robson - Journeys To The H
DTITLE=eart Of The Blues
DYEAR=2018
DGENRE=Blues
TTITLE0=Mean Old Train
TTITLE1=It's You Baby
TTITLE2=I'm A Lonely Man
TTITLE3=You Got To Run Me Down
TTITLE4=Murderer's Home
TTITLE5=Feel Like Blowin' My Horn
TTITLE6=Hell Ain't But A Mile And Quarter
TTITLE7=G&J Boogie
TTITLE8=Poor Kelly Blues
TTITLE9=Chicago Breakdown
TTITLE10=Hard Pill To Swallow
TTITLE11=Real Gone Lover
EXTD=
EXTT0=
EXTT1=
EXTT2=
EXTT3=
EXTT4=
EXTT5=
EXTT6=
EXTT7=
EXTT8=
EXTT9=
EXTT10=
EXTT11=
PLAYORDER=
